<svg width="24" height="24" viewBox="0 0 24 24" fill="none" xmlns="http://www.w3.org/2000/svg">
<path d="M14.8594 6.89763H19.5352V8.03201H14.8594V6.89763ZM10.1742 11.3859C11.2078 10.8914 11.7492 10.139 11.7492 8.97654C11.7492 6.67732 10.0383 6.11951 8.0625 6.11951H2.625L2.625 17.6601H8.21484C10.3102 17.6601 12.2766 16.6523 12.2766 14.3086C12.2766 12.8601 11.5922 11.789 10.1742 11.3859V11.3859ZM5.16094 8.08826H7.53984C8.45625 8.08826 9.27891 8.34373 9.27891 9.40779C9.27891 10.3875 8.63906 10.7812 7.73203 10.7812H5.16094V8.08826ZM7.86797 15.7008H5.15859V12.5226H7.92188C9.0375 12.5226 9.74297 12.989 9.74297 14.1703C9.74297 15.3328 8.90156 15.7008 7.86797 15.7008V15.7008ZM21.3633 13.6031C21.3633 11.1304 19.9172 9.07029 17.3016 9.07029C14.7586 9.07029 13.0289 10.9851 13.0289 13.4953C13.0289 16.0969 14.6672 17.8828 17.3016 17.8828C19.2961 17.8828 20.5875 16.9851 21.2086 15.0703H19.1859C18.9656 15.7851 18.0703 16.1601 17.3742 16.1601C16.0289 16.1601 15.3258 15.3726 15.3258 14.0344H21.3469C21.3539 13.8961 21.3633 13.7508 21.3633 13.6031V13.6031ZM15.3258 12.5859C15.3984 11.4867 16.132 10.8 17.2289 10.8C18.382 10.8 18.9586 11.4773 19.0594 12.5859H15.3258Z" fill="black"/>
</svg>
