<svg width="24" height="24" viewBox="0 0 24 24" fill="none" xmlns="http://www.w3.org/2000/svg">
<g clip-path="url(#clip0_169_989)">
<path fill-rule="evenodd" clip-rule="evenodd" d="M12 0.00012207C5.375 0.00012207 0 5.37512 0 12.0001C0 18.6251 5.375 24.0001 12 24.0001C18.612 24.0001 24 18.6251 24 12.0001C24 5.37512 18.612 0.00012207 12 0.00012207ZM19.926 5.53112C21.4035 7.33046 22.2211 9.58102 22.243 11.9091C21.905 11.8441 18.521 11.1541 15.111 11.5841C15.032 11.4141 14.967 11.2321 14.889 11.0501C14.6769 10.5495 14.4515 10.0547 14.213 9.56612C17.987 8.03012 19.705 5.81812 19.926 5.53112V5.53112ZM12 1.77112C14.603 1.77112 16.985 2.74612 18.794 4.34712C18.612 4.60712 17.063 6.67712 13.419 8.04312C11.739 4.95912 9.879 2.43312 9.592 2.04312C10.3813 1.85881 11.1894 1.76719 12 1.77012V1.77112ZM7.64 2.73312C7.913 3.09812 9.735 5.63612 11.44 8.65512C6.65 9.93112 2.42 9.90512 1.965 9.90512C2.629 6.72912 4.777 4.08712 7.64 2.73312ZM1.744 12.0131L1.744 11.7011C2.187 11.7141 7.158 11.7791 12.274 10.2431C12.573 10.8161 12.846 11.4011 13.106 11.9871C12.976 12.0261 12.833 12.0651 12.703 12.1041C7.419 13.8091 4.607 18.4681 4.373 18.8591C2.68041 16.9806 1.7438 14.5417 1.744 12.0131V12.0131ZM12 22.2561C9.72201 22.2597 7.50864 21.4992 5.714 20.0961C5.896 19.7181 7.978 15.7091 13.757 13.6921C13.783 13.6791 13.797 13.6791 13.822 13.6661C15.267 17.4011 15.852 20.5381 16.009 21.4361C14.772 21.9701 13.419 22.2561 12 22.2561ZM17.714 20.4991C17.61 19.8741 17.063 16.8811 15.722 13.1971C18.937 12.6901 21.748 13.5231 22.1 13.6401C21.657 16.4901 20.017 18.9501 17.714 20.4991Z" fill="black"/>
</g>
<defs>
<clipPath id="clip0_169_989">
<rect width="24" height="24" fill="white"/>
</clipPath>
</defs>
</svg>
