<svg width="20" height="20" viewBox="0 0 20 20" fill="none" xmlns="http://www.w3.org/2000/svg">
<g clip-path="url(#clip0_169_993)">
<path d="M14.1817 0.665894H5.81769C2.97733 0.665894 0.666504 2.97683 0.666504 5.81719V14.1812C0.666504 17.0216 2.97733 19.3324 5.81769 19.3324H14.1817C17.0222 19.3324 19.3331 17.0215 19.3331 14.1812V5.81719C19.3332 2.97683 17.0222 0.665894 14.1817 0.665894ZM17.677 14.1812C17.677 16.1084 16.109 17.6763 14.1818 17.6763H5.81769C3.89055 17.6764 2.32269 16.1084 2.32269 14.1812V5.81719C2.32269 3.89005 3.89055 2.32208 5.81769 2.32208H14.1817C16.1089 2.32208 17.6769 3.89005 17.6769 5.81719L17.677 14.1812Z" fill="black"/>
<path d="M9.99972 5.18978C7.3475 5.18978 5.18982 7.34746 5.18982 9.99968C5.18982 12.6518 7.3475 14.8094 9.99972 14.8094C12.6519 14.8094 14.8096 12.6518 14.8096 9.99968C14.8096 7.34746 12.6519 5.18978 9.99972 5.18978ZM9.99972 13.1531C8.26083 13.1531 6.84601 11.7385 6.84601 9.99957C6.84601 8.26057 8.26072 6.84585 9.99972 6.84585C11.7387 6.84585 13.1534 8.26057 13.1534 9.99957C13.1534 11.7385 11.7386 13.1531 9.99972 13.1531Z" fill="black"/>
<path d="M15.0115 3.78504C14.6924 3.78504 14.3789 3.91422 14.1536 4.14057C13.9271 4.36581 13.7969 4.67938 13.7969 4.99958C13.7969 5.31878 13.9272 5.63224 14.1536 5.85859C14.3788 6.08383 14.6924 6.21411 15.0115 6.21411C15.3317 6.21411 15.6441 6.08383 15.8705 5.85859C16.0968 5.63224 16.226 5.31867 16.226 4.99958C16.226 4.67938 16.0968 4.36581 15.8705 4.14057C15.6452 3.91422 15.3317 3.78504 15.0115 3.78504Z" fill="black"/>
</g>
<defs>
<clipPath id="clip0_169_993">
<rect width="18.6667" height="18.6667" fill="white" transform="translate(0.666504 0.665894)"/>
</clipPath>
</defs>
</svg>
