<svg width="122" height="80" viewBox="0 0 122 80" fill="none" xmlns="http://www.w3.org/2000/svg">
<g clip-path="url(#clip0_169_1049)">
<path d="M43.2576 48.2484L35.6221 29.5911H30.3613L40.652 52.5526L33.4232 68.9177H38.3982L55.7472 29.5911H50.7722L43.2576 48.2484Z" fill="white"/>
<path d="M79.8084 29.5912H74.2563L64.2515 39.0023V11.0823H59.7988V56.1919H64.2515V42.6194L75.4107 56.1919H80.9628L68.127 40.58L79.8084 29.5912Z" fill="white"/>
<path d="M89.813 11.0823H85.3604V56.1919H89.813V11.0823Z" fill="white"/>
<path d="M120.41 35.3741C119.476 33.4071 117.975 31.7645 116.1 30.6575C114.063 29.5152 111.755 28.9454 109.421 29.0084C107.004 28.956 104.618 29.5541 102.511 30.74C100.536 31.8845 98.9297 33.5708 97.8826 35.5995C96.7424 37.8568 96.176 40.3603 96.2335 42.8887C96.1798 45.3904 96.7245 47.8687 97.8221 50.1174C98.8215 52.1299 100.364 53.8226 102.275 55.0044C104.255 56.1994 106.532 56.811 108.844 56.769C111.406 56.8278 113.941 56.2398 116.216 55.0594C118.378 53.868 120.184 52.1224 121.449 50.002L117.865 47.7427C117.001 49.2619 115.754 50.5281 114.248 51.4148C112.75 52.2291 111.065 52.6384 109.361 52.6021C107.728 52.6485 106.115 52.2372 104.705 51.4148C103.395 50.6087 102.366 49.4185 101.758 48.0065C101.199 46.7312 100.87 45.3671 100.785 43.9771H121.839C121.839 43.8947 121.839 43.7132 121.867 43.4274C121.894 43.1415 121.894 42.8777 121.894 42.5863C121.957 40.1004 121.449 37.6332 120.41 35.3741V35.3741ZM104.793 34.0438C106.199 33.238 107.801 32.8366 109.421 32.8839C110.824 32.8551 112.209 33.2065 113.429 33.9008C114.576 34.5653 115.517 35.536 116.144 36.7044C116.721 37.7948 117.046 39.0008 117.095 40.2336H100.978C101.134 39.2471 101.427 38.287 101.846 37.3805C102.475 36.0003 103.501 34.8387 104.793 34.0438V34.0438Z" fill="white"/>
<path d="M19.7902 52.1074H19.5539H19.323C18.766 52.1689 18.2513 52.4337 17.8775 52.8511C17.5036 53.2685 17.2969 53.8092 17.2969 54.3695C17.2969 54.9298 17.5036 55.4705 17.8775 55.8879C18.2513 56.3053 18.766 56.5701 19.323 56.6316H19.8727C20.4293 56.5662 20.9422 56.2976 21.3131 55.8775C21.684 55.4574 21.8869 54.9151 21.8828 54.3547C21.8787 53.7943 21.668 53.2551 21.291 52.8404C20.914 52.4257 20.3972 52.1647 19.8397 52.1074H19.7902Z" fill="white"/>
<path d="M12.1712 50.2C12.123 50.1567 12.0694 50.1197 12.0118 50.0901C11.9236 50.036 11.8318 49.9883 11.7369 49.9471V49.9471C11.2154 49.7353 10.6338 49.7242 10.1045 49.9161C9.57527 50.108 9.13593 50.4893 8.8714 50.9862C8.60686 51.4832 8.53591 52.0605 8.67223 52.6067C8.80856 53.1529 9.14249 53.6292 9.60952 53.9436V53.9436C9.64402 53.9705 9.68081 53.9945 9.71946 54.015C9.73024 54.0181 9.74166 54.0181 9.75244 54.015C9.75244 54.015 9.75244 54.015 9.75244 54.015L9.86788 54.0755H9.90087L9.97233 54.1085C10.4923 54.348 11.0836 54.3822 11.6278 54.2043C12.1719 54.0264 12.6288 53.6494 12.9068 53.149C13.1848 52.6485 13.2635 52.0615 13.1271 51.5055C12.9907 50.9495 12.6493 50.4655 12.1712 50.1505V50.2Z" fill="white"/>
<path d="M27.3763 49.9305L27.2828 49.9745C27.2201 50.0032 27.1595 50.0362 27.1014 50.0734C27.055 50.0989 27.0108 50.1283 26.9695 50.1614V50.1614C26.5032 50.478 26.1714 50.9568 26.0385 51.5046C25.9057 52.0523 25.9814 52.6299 26.2509 53.125C26.5203 53.62 26.9643 53.9971 27.4964 54.183C28.0286 54.3688 28.6108 54.35 29.1299 54.1303L29.1958 54.0973C29.2676 54.067 29.3373 54.0321 29.4047 53.9929C29.4488 53.9692 29.4895 53.9396 29.5256 53.9049C30.0041 53.5865 30.3432 53.0977 30.4739 52.538C30.6046 51.9784 30.5171 51.3899 30.2293 50.8925C29.9508 50.4139 29.5081 50.0526 28.9834 49.8757C28.4587 49.6988 27.8877 49.7183 27.3763 49.9305V49.9305Z" fill="white"/>
<path d="M27.195 25.8367L30.1085 26.227L34.5942 26.8316L32.8351 22.5769L31.7357 19.9602L30.4219 16.7554L29.2784 19.9822C25.54 17.8464 21.2029 16.9993 16.9356 17.5714C12.6682 18.1435 8.70746 20.1031 5.66361 23.1482C2.61977 26.1933 0.661801 30.1549 0.0914412 34.4224C-0.478918 38.69 0.369986 43.0267 2.50733 46.7643C2.50733 46.7643 2.50733 46.7643 2.50733 46.7643L2.54032 46.8248L2.5733 46.8797L2.70523 47.0667C2.85124 47.2472 3.02358 47.4047 3.21646 47.5339L3.27693 47.5779L3.3484 47.6219C3.3484 47.6219 3.3484 47.6219 3.38138 47.6219L3.45834 47.6658L3.5353 47.6988H3.56828H3.60676C4.1176 47.9044 4.68535 47.9191 5.2062 47.7405C5.72705 47.5618 6.16618 47.2017 6.44329 46.7258C6.61664 46.4574 6.73267 46.1561 6.78411 45.8408C6.79962 45.5007 6.74149 45.1613 6.6137 44.8458V44.8458C6.58052 44.7538 6.53816 44.6654 6.48727 44.5819C6.43872 44.4954 6.38359 44.4127 6.32235 44.3346C4.75564 41.5019 4.14064 38.2408 4.56805 35.0321C4.99546 31.8234 6.44265 28.8369 8.69622 26.5132C10.9498 24.1894 13.8904 22.6513 17.0845 22.1257C20.2786 21.6 23.5571 22.1147 26.4364 23.5938L23.7868 25.3969L27.195 25.8367Z" fill="white"/>
</g>
<defs>
<clipPath id="clip0_169_1049">
<rect width="122" height="80" fill="white"/>
</clipPath>
</defs>
</svg>
