<svg width="20" height="20" viewBox="0 0 20 20" fill="none" xmlns="http://www.w3.org/2000/svg">
<g clip-path="url(#clip0_169_997)">
<path d="M19.3332 4.21139C18.639 4.51589 17.8993 4.71773 17.1282 4.81573C17.9215 4.34206 18.527 3.59773 18.8117 2.70056C18.072 3.14156 17.2553 3.45306 16.385 3.62689C15.6827 2.87906 14.6817 2.41589 13.5897 2.41589C11.471 2.41589 9.76534 4.13556 9.76534 6.24373C9.76534 6.54706 9.791 6.83873 9.854 7.11639C6.6725 6.96123 3.85734 5.43639 1.96617 3.11356C1.636 3.68639 1.44234 4.34206 1.44234 5.04789C1.44234 6.37323 2.12484 7.54806 3.14217 8.22823C2.52734 8.21656 1.92417 8.03806 1.41317 7.75689C1.41317 7.76856 1.41317 7.78373 1.41317 7.79889C1.41317 9.65856 2.73967 11.2032 4.47917 11.5591C4.16767 11.6442 3.82817 11.6851 3.47584 11.6851C3.23084 11.6851 2.9835 11.6711 2.75134 11.6197C3.24717 13.1352 4.65417 14.2494 6.32717 14.2856C5.02517 15.3041 3.372 15.9177 1.58234 15.9177C1.2685 15.9177 0.967504 15.9037 0.666504 15.8652C2.36167 16.9584 4.37067 17.5826 6.53717 17.5826C13.5792 17.5826 17.4292 11.7492 17.4292 6.69289C17.4292 6.52373 17.4233 6.36039 17.4152 6.19823C18.1747 5.65923 18.8128 4.98606 19.3332 4.21139Z" fill="black"/>
</g>
<defs>
<clipPath id="clip0_169_997">
<rect width="18.6667" height="18.6667" fill="white" transform="translate(0.666504 0.665894)"/>
</clipPath>
</defs>
</svg>
