<svg width="23" height="23" viewBox="0 0 23 23" fill="none" xmlns="http://www.w3.org/2000/svg">
<path fill-rule="evenodd" clip-rule="evenodd" d="M7.0165 14.8351C6.85416 15.0493 6.87282 15.3582 7.07098 15.5563C7.28715 15.7725 7.63508 15.7751 7.84809 15.5621L14.6277 8.78243L14.6541 13.7069L14.6605 13.7882C14.7011 14.0535 14.9306 14.259 15.2065 14.2616C15.51 14.2644 15.7547 14.0207 15.7531 13.7173L15.72 7.47266C15.7205 7.43618 15.7174 7.39961 15.7107 7.36353C15.663 7.10555 15.4362 6.90834 15.1652 6.90693L8.91011 6.87434L8.82896 6.87987C8.56436 6.91774 8.36322 7.14509 8.36585 7.42099C8.36873 7.72447 8.61709 7.97177 8.92057 7.97336L13.8455 7.99899L7.06526 14.7792L7.0165 14.8351Z" fill="black"/>
</svg>
